<svg xmlns="http://www.w3.org/2000/svg" width="16" height="16" viewBox="0 0 16 16">
    <g fill="none" fill-rule="evenodd">
        <g fill="#691A24">
            <path d="M2.215 2.428C1.602 3.071 1.095 3.82.72 4.644l14.664 1.15L2.215 2.428zM.53 5.104C.225 5.9.042 6.76.005 7.658l15.648-.408L.53 5.104zM5.252.448c-.92.329-1.762.827-2.49 1.459l11.823 2.002L5.252.449zM0 8.13c.014.909.175 1.78.462 2.59L15.653 8.59 0 8.13zm13.553 5.355L6.022 15.78c.584.142 1.194.219 1.82.219 2.252 0 4.28-.968 5.71-2.516zM6.499.119l6.698 2.036C11.795.82 9.913 0 7.843 0c-.459 0-.907.042-1.344.12zm8.38 11.42L2.543 13.898c.696.65 1.507 1.171 2.397 1.534l9.94-3.893zm.542-1.467L.63 11.152c.355.844.849 1.613 1.452 2.277l13.34-3.357z"/>
        </g>
    </g>
</svg>
